<svg width="41" height="879" viewBox="0 0 41 879" fill="none" xmlns="http://www.w3.org/2000/svg">
<rect width="41" height="879" fill="white"/>
<g id="Step 25" filter="url(#filter0_d_61_2229)">
<g clip-path="url(#clip0_61_2229)">
<rect x="-54.5" width="430" height="932" rx="24" fill="#F4F4EA"/>
<path id="Graph" d="M9.52156 879C9.52156 844.423 12.5296 844.423 12.5296 809.846C12.5296 775.269 11.5269 775.269 11.5269 740.692C11.5269 706.115 6.51347 706.115 6.51347 671.538C6.51347 636.962 31.5808 636.962 31.5808 602.385C31.5808 567.808 7.51617 567.808 7.51617 533.231C7.51617 498.654 26.5674 498.654 26.5674 464.077C26.5674 429.5 16.5404 429.5 16.5404 394.923C16.5404 360.346 24.562 360.346 24.562 325.769C24.562 291.192 21.5539 291.192 21.5539 256.615C21.5539 222.038 1.5 222.038 1.5 187.462C1.5 152.885 28.5728 152.885 28.5728 118.308C28.5728 83.7308 38.5997 83.7308 38.5997 49.1539C38.5997 14.5769 33.5862 14.5769 33.5862 -20" stroke="#949494" stroke-opacity="0.3" stroke-width="3"/>
</g>
<rect x="-55" y="-0.5" width="431" height="933" rx="24.5" stroke="#D1D5DB"/>
</g>
<defs>
<filter id="filter0_d_61_2229" x="-66.5" y="-8" width="456" height="958" filterUnits="userSpaceOnUse" color-interpolation-filters="sRGB">
<feFlood flood-opacity="0" result="BackgroundImageFix"/>
<feColorMatrix in="SourceAlpha" type="matrix" values="0 0 0 0 0 0 0 0 0 0 0 0 0 0 0 0 0 0 127 0" result="hardAlpha"/>
<feOffset dx="1" dy="5"/>
<feGaussianBlur stdDeviation="6"/>
<feColorMatrix type="matrix" values="0 0 0 0 0.0627451 0 0 0 0 0.0941176 0 0 0 0 0.12549 0 0 0 0.16 0"/>
<feBlend mode="normal" in2="BackgroundImageFix" result="effect1_dropShadow_61_2229"/>
<feBlend mode="normal" in="SourceGraphic" in2="effect1_dropShadow_61_2229" result="shape"/>
</filter>
<clipPath id="clip0_61_2229">
<rect x="-54.5" width="430" height="932" rx="24" fill="white"/>
</clipPath>
</defs>
</svg>
